# xmcd
#
# Track frame offsets: 
#        182
#        10145
#        24735
#        38560
#        52660
#        64000
#        78582
#        94647
#        107567
#        122722
#        138230
#        161597
#        176547
#        192650
#        206687
#        221735
#        234510
#        251412
#        267095
#        286762
#        301970
#        317575
#        333877
#
# Disc length: 4636 seconds
#
# Revision: 8
# Processed by: cddbd v1.5.2PL0 Copyright (c) Steve Scherf et al.
# Submitted via: ExactAudioCopyFreeDBPlugin 1.0
#
DISCID=35121a17
DTITLE=Various Artist - Can You Dig It?:  The '70s Soul Experience [R
DTITLE=hino box set]
DYEAR=2001
DGENRE=Soul
TTITLE0=Wilson Pickett - Don't Knock My Love, Part I
TTITLE1=The Friends of Distinction - Love or Let Me Be Lonely
TTITLE2=Freda Payne - Deeper and Deeper
TTITLE3=The Chairmen of the Board - Pay to the Piper
TTITLE4=Jean Knight - Mr. Big Stuff
TTITLE5=Laura Lee - Women's Love Rights
TTITLE6=The Dramatics - Whatcha See is Whatcha Get
TTITLE7=King Floyd - Baby Let Me Kiss You
TTITLE8=Brenda and The Tabulations - Right on the Tip of My Tongue
TTITLE9=The Persuaders - Thin Line Between Love and Hate
TTITLE10=The Chi-Lites - Have You Seen Her
TTITLE11=Isaac Hayes - Theme from "Shaft"
TTITLE12=The Staple Singers - Respect Yourself
TTITLE13=Sly and the Family Stone - Family Affair
TTITLE14=Al Green - Let's Stay Together
TTITLE15=Betty Wright - Clean Up Woman
TTITLE16=The Honey Cone - One Monkey Don't Stop No Show, Part I
TTITLE17=Joe Simon - Drowning in the Sea of Love
TTITLE18=Jerry Butler and Brenda Lee Eager - Ain't Understanding Mellow
TTITLE19=Frederick Knight - I've Been Lonely for So Long
TTITLE20=Malo - Suavecito
TTITLE21=The Soul Children - Hearsay
TTITLE22=The 8th Day - She's Not Just Another Woman
EXTD=
EXTT0=
EXTT1=
EXTT2=
EXTT3=
EXTT4=
EXTT5=
EXTT6=
EXTT7=
EXTT8=
EXTT9=
EXTT10=
EXTT11=
EXTT12=
EXTT13=
EXTT14=
EXTT15=
EXTT16=
EXTT17=
EXTT18=
EXTT19=
EXTT20=
EXTT21=
EXTT22=
PLAYORDER=
